<?xml version="1.0" standalone="no"?>
<!DOCTYPE svg PUBLIC "-//W3C//DTD SVG 20010904//EN"
 "http://www.w3.org/TR/2001/REC-SVG-20010904/DTD/svg10.dtd">
<svg version="1.0" xmlns="http://www.w3.org/2000/svg"
 width="226.000000pt" height="226.000000pt" viewBox="0 0 226.000000 226.000000"
 preserveAspectRatio="xMidYMid meet">
<metadata>
Created by potrace 1.14, written by Peter Selinger 2001-2017
</metadata>
<g transform="translate(0.000000,226.000000) scale(0.100000,-0.100000)"
fill="#000000" stroke="none">
<path d="M978 2063 c7 -3 16 -2 19 1 4 3 -2 6 -13 5 -11 0 -14 -3 -6 -6z"/>
<path d="M655 1988 c-112 -64 -260 -208 -323 -315 -67 -114 -74 -109 146 -106
436 6 732 16 732 24 0 5 -82 88 -182 186 -258 253 -268 263 -276 263 -4 0 -47
-23 -97 -52z"/>
<path d="M858 2033 c7 -3 16 -2 19 1 4 3 -2 6 -13 5 -11 0 -14 -3 -6 -6z"/>
<path d="M1504 1520 c0 -52 1 -74 3 -47 2 26 2 68 0 95 -2 26 -3 4 -3 -48z"/>
<path d="M488 1531 c-146 -4 -268 -8 -271 -11 -23 -28 -67 -248 -67 -340 0
-119 44 -312 72 -318 8 -1 65 50 128 115 62 65 203 210 312 322 119 123 198
211 196 220 -4 19 -4 19 -370 12z"/>
<path d="M457 1043 c-282 -287 -259 -259 -242 -300 51 -122 173 -267 304 -361
50 -36 134 -82 151 -82 7 0 10 114 10 343 0 417 -8 587 -26 587 -7 0 -96 -84
-197 -187z"/>
<path d="M717 884 c-4 -4 -7 -151 -7 -326 l0 -319 35 -15 c119 -49 334 -68
485 -41 91 15 160 40 160 56 0 10 -643 644 -658 649 -5 1 -11 -1 -15 -4z"/>
<path d="M1395 700 c-198 -4 -366 -8 -372 -9 -7 0 -13 -9 -13 -18 0 -19 433
-446 457 -451 20 -5 147 70 223 131 111 90 255 282 248 332 -4 24 -17 25 -543
15z"/>
</g>
</svg>
